<svg xmlns="http://www.w3.org/2000/svg" xmlns:xlink="http://www.w3.org/1999/xlink" version="1.1" x="0px" y="0px" viewBox="0 0 512 640" enable-background="new 0 0 512 512" xml:space="preserve"><g><path d="M408.6,149.2c-23.2-34.8-82.7-73.1-151.7-78.9c-39-3.3-95.2,3.2-141.4,52.3c-31.1,33.1-46.1,67.4-44.7,102   c1.6,38.8,23.6,66,32.8,75.8c-8,26.3-25.7,83-31.9,95.6c-4.8,9.7-4.1,20.9,1.9,30.7c5.6,9.1,14.9,15.5,22.6,15.5   c5.1,0,12.9,0,107.3-137.2c12.4-5.1,67.1-28.2,86-52.6c1.2-1.5,2.1-2.4,2.7-2.9c3.7,6.3,5.3,31.5-8.1,52.6   c-8.4,13.3-27,35.8-45,57.5c-40,48.4-57.5,70.8-57.5,82.7l17,0.2c1.2-8.8,32.8-46.9,53.6-72.1c19.1-23.2,37.2-45,46.2-59.2   c16.4-25.9,17.9-65.9,2.7-76.6c-2.9-2.1-13.4-7.6-25.1,7.5c-13.3,17.2-53.4,36.5-74.3,45.4c-3.4-12.6-9.5-23.9-17.7-32.7   c-12.6-13.6-30.5-21.3-47.7-20.5c-6.9,0.3-12.4,1.9-16.8,5c-10.4,7.1-12.7,20.2-13.5,29.4c-0.3,3.5,0.1,6.1,0.5,8.5   c-8.3-11.9-17.8-30.4-18.8-53.3c-1.2-29.8,12.3-59.9,40.1-89.5c41.6-44.2,92.3-50,127.6-47c63,5.3,118.6,40.7,139,71.3   c37.5,56.4,41.4,104.1,16,196c-3.6,8.3-25.9,61.4-25.9,79.1h17c0-11.1,15.2-50.6,24.8-73l0.4-1.1   C453.5,262.9,448.9,209.8,408.6,149.2z M129,253.1c1.8-1.2,4.5-1.9,8.1-2.1c12.4-0.6,25.2,5.1,34.5,15.1   c7.9,8.5,13.1,20.2,15.2,33.1c-38.3,55.5-80.6,113.8-92.2,125.2c-2.1-1.2-5.2-3.9-7.3-8c-2.3-4.5-2.5-8.8-0.5-12.9   c8.7-17.4,33.4-99.6,34.5-103.1l0.4-1.4l0.4,0.1c3.8-12,2.5-18.3,1.4-23.4c-0.5-2.3-0.8-3.8-0.6-5.9   C123.4,264.1,124.6,256.1,129,253.1z"/><path d="M172.5,183.5c0,16.4,13.3,29.7,29.7,29.7s29.7-13.3,29.7-29.7s-13.3-29.7-29.7-29.7S172.5,167.2,172.5,183.5z M214.9,183.5   c0,7-5.7,12.7-12.7,12.7c-7,0-12.7-5.7-12.7-12.7c0-7,5.7-12.7,12.7-12.7C209.2,170.8,214.9,176.5,214.9,183.5z"/></g><text x="0" y="527" fill="#000000" font-size="5px" font-weight="bold" font-family="'Helvetica Neue', Helvetica, Arial-Unicode, Arial, Sans-serif">Created by Creative Stall</text><text x="0" y="532" fill="#000000" font-size="5px" font-weight="bold" font-family="'Helvetica Neue', Helvetica, Arial-Unicode, Arial, Sans-serif">from the Noun Project</text></svg>